<svg width="68" height="74" viewBox="0 0 68 74" fill="none" xmlns="http://www.w3.org/2000/svg">
<path d="M33.964 0.379883C15.2362 0.379883 0 16.8017 0 36.9866V39.6003V51.6293V52.1528C0 55.9013 3.04657 58.9506 6.79279 58.9506H10.1892C12.0674 58.9506 13.5856 57.3107 13.5856 55.29V36.4631C13.5856 34.4424 12.0674 32.8025 10.1892 32.8025H7.10526C8.99366 18.6357 20.3037 7.70123 33.964 7.70123C47.6243 7.70123 58.9343 18.6357 60.8227 32.8025H57.7387C55.8605 32.8025 54.3423 34.4424 54.3423 36.4631V51.6293V55.29V58.9506C54.3423 62.9884 51.2958 66.272 47.5495 66.272H40.7568V62.6113H27.1712V73.5933H33.964H40.7568H47.5495C55.042 73.5933 61.1351 67.0261 61.1351 58.9506C64.8814 58.9506 67.9279 55.9013 67.9279 52.1528V51.6293V39.6003V36.9866C67.9279 16.8017 52.6917 0.379883 33.964 0.379883Z" fill="#0E0E0E"/>
</svg>
