<svg width="70" height="69" viewBox="0 0 70 69" fill="none" xmlns="http://www.w3.org/2000/svg">
<path d="M3.92928 0.577637H0.658691V3.80834H3.92928V0.577637Z" fill="black"/>
<path d="M7.19987 0.577637H3.92928V3.80834H7.19987V0.577637Z" fill="black"/>
<path d="M10.4705 0.577637H7.19987V3.80834H10.4705V0.577637Z" fill="black"/>
<path d="M13.741 0.577637H10.4705V3.80834H13.741V0.577637Z" fill="black"/>
<path d="M17.0116 0.577637H13.741V3.80834H17.0116V0.577637Z" fill="black"/>
<path d="M20.2822 0.577637H17.0116V3.80834H20.2822V0.577637Z" fill="black"/>
<path d="M23.5528 0.577637H20.2822V3.80834H23.5528V0.577637Z" fill="black"/>
<path d="M30.094 0.577637H26.8234V3.80834H30.094V0.577637Z" fill="black"/>
<path d="M49.7175 0.577637H46.4469V3.80834H49.7175V0.577637Z" fill="black"/>
<path d="M52.9881 0.577637H49.7175V3.80834H52.9881V0.577637Z" fill="black"/>
<path d="M56.2587 0.577637H52.9881V3.80834H56.2587V0.577637Z" fill="black"/>
<path d="M59.5293 0.577637H56.2587V3.80834H59.5293V0.577637Z" fill="black"/>
<path d="M62.7999 0.577637H59.5293V3.80834H62.7999V0.577637Z" fill="black"/>
<path d="M66.0705 0.577637H62.7999V3.80834H66.0705V0.577637Z" fill="black"/>
<path d="M69.3411 0.577637H66.0705V3.80834H69.3411V0.577637Z" fill="black"/>
<path d="M3.92928 3.80834H0.658691V7.03904H3.92928V3.80834Z" fill="black"/>
<path d="M23.5528 3.80834H20.2822V7.03904H23.5528V3.80834Z" fill="black"/>
<path d="M33.3646 3.80834H30.094L30.094 7.03904H33.3646V3.80834Z" fill="black"/>
<path d="M36.6352 3.80834H33.3646V7.03904H36.6352V3.80834Z" fill="black"/>
<path d="M43.1764 3.80834H39.9058V7.03904H43.1764V3.80834Z" fill="black"/>
<path d="M49.7175 3.80834H46.4469V7.03904H49.7175V3.80834Z" fill="black"/>
<path d="M69.3411 3.80834H66.0705V7.03904H69.3411V3.80834Z" fill="black"/>
<path d="M3.92928 7.03904H0.658691V10.2697H3.92928V7.03904Z" fill="black"/>
<path d="M10.4705 7.03904H7.19987V10.2697H10.4705V7.03904Z" fill="black"/>
<path d="M13.741 7.03904H10.4705V10.2697H13.741V7.03904Z" fill="black"/>
<path d="M17.0116 7.03904H13.741V10.2697H17.0116V7.03904Z" fill="black"/>
<path d="M23.5528 7.03904H20.2822V10.2697H23.5528V7.03904Z" fill="black"/>
<path d="M30.094 7.03904H26.8234V10.2697H30.094L30.094 7.03904Z" fill="black"/>
<path d="M33.3646 7.03904H30.094L30.094 10.2697H33.3646V7.03904Z" fill="black"/>
<path d="M43.1764 7.03904H39.9058V10.2697H43.1764V7.03904Z" fill="black"/>
<path d="M49.7175 7.03904H46.4469V10.2697H49.7175V7.03904Z" fill="black"/>
<path d="M56.2587 7.03904H52.9881V10.2697H56.2587V7.03904Z" fill="black"/>
<path d="M59.5293 7.03904H56.2587V10.2697H59.5293V7.03904Z" fill="black"/>
<path d="M62.7999 7.03904H59.5293V10.2697H62.7999V7.03904Z" fill="black"/>
<path d="M69.3411 7.03904H66.0705V10.2697H69.3411V7.03904Z" fill="black"/>
<path d="M3.92928 10.2697H0.658691V13.5005H3.92928V10.2697Z" fill="black"/>
<path d="M10.4705 10.2697H7.19987V13.5005H10.4705V10.2697Z" fill="black"/>
<path d="M13.741 10.2697H10.4705V13.5005H13.741V10.2697Z" fill="black"/>
<path d="M17.0116 10.2697H13.741V13.5005H17.0116V10.2697Z" fill="black"/>
<path d="M23.5528 10.2697H20.2822V13.5005H23.5528V10.2697Z" fill="black"/>
<path d="M30.094 10.2697H26.8234V13.5005H30.094V10.2697Z" fill="black"/>
<path d="M36.6352 10.2697H33.3646L33.3646 13.5005H36.6352V10.2697Z" fill="black"/>
<path d="M43.1764 10.2697H39.9058V13.5005H43.1764V10.2697Z" fill="black"/>
<path d="M49.7175 10.2697H46.4469V13.5005H49.7175V10.2697Z" fill="black"/>
<path d="M56.2587 10.2697H52.9881V13.5005H56.2587V10.2697Z" fill="black"/>
<path d="M59.5293 10.2697H56.2587V13.5005H59.5293V10.2697Z" fill="black"/>
<path d="M62.7999 10.2697H59.5293V13.5005H62.7999V10.2697Z" fill="black"/>
<path d="M69.3411 10.2697H66.0705V13.5005H69.3411V10.2697Z" fill="black"/>
<path d="M3.92928 13.5005H0.658691V16.7312H3.92928V13.5005Z" fill="black"/>
<path d="M10.4705 13.5005H7.19987V16.7312H10.4705V13.5005Z" fill="black"/>
<path d="M13.741 13.5005H10.4705V16.7312H13.741V13.5005Z" fill="black"/>
<path d="M17.0116 13.5005H13.741V16.7312H17.0116V13.5005Z" fill="black"/>
<path d="M23.5528 13.5005H20.2822V16.7312H23.5528V13.5005Z" fill="black"/>
<path d="M30.094 13.5005H26.8234V16.7312H30.094V13.5005Z" fill="black"/>
<path d="M33.3646 13.5005H30.094V16.7312H33.3646L33.3646 13.5005Z" fill="black"/>
<path d="M36.6352 13.5005H33.3646L33.3646 16.7312H36.6352V13.5005Z" fill="black"/>
<path d="M43.1764 13.5005H39.9058V16.7312H43.1764V13.5005Z" fill="black"/>
<path d="M49.7175 13.5005H46.4469V16.7312H49.7175V13.5005Z" fill="black"/>
<path d="M56.2587 13.5005H52.9881V16.7312H56.2587V13.5005Z" fill="black"/>
<path d="M59.5293 13.5005H56.2587V16.7312H59.5293V13.5005Z" fill="black"/>
<path d="M62.7999 13.5005H59.5293V16.7312H62.7999V13.5005Z" fill="black"/>
<path d="M69.3411 13.5005H66.0705V16.7312H69.3411V13.5005Z" fill="black"/>
<path d="M3.92928 16.7312H0.658691V19.9619H3.92928V16.7312Z" fill="black"/>
<path d="M23.5528 16.7312H20.2822V19.9619H23.5528V16.7312Z" fill="black"/>
<path d="M30.094 16.7312H26.8234V19.9619H30.094V16.7312Z" fill="black"/>
<path d="M33.3646 16.7312H30.094V19.9619H33.3646V16.7312Z" fill="black"/>
<path d="M39.9058 16.7312H36.6352L36.6352 19.9619H39.9058V16.7312Z" fill="black"/>
<path d="M49.7175 16.7312H46.4469V19.9619H49.7175V16.7312Z" fill="black"/>
<path d="M69.3411 16.7312H66.0705V19.9619H69.3411V16.7312Z" fill="black"/>
<path d="M3.92928 19.9619H0.658691V23.1926H3.92928V19.9619Z" fill="black"/>
<path d="M7.19987 19.9619H3.92928V23.1926H7.19987V19.9619Z" fill="black"/>
<path d="M10.4705 19.9619H7.19987V23.1926H10.4705V19.9619Z" fill="black"/>
<path d="M13.741 19.9619H10.4705V23.1926H13.741V19.9619Z" fill="black"/>
<path d="M17.0116 19.9619H13.741V23.1926H17.0116V19.9619Z" fill="black"/>
<path d="M20.2822 19.9619H17.0116V23.1926H20.2822V19.9619Z" fill="black"/>
<path d="M23.5528 19.9619H20.2822V23.1926H23.5528V19.9619Z" fill="black"/>
<path d="M30.094 19.9619H26.8234V23.1926H30.094V19.9619Z" fill="black"/>
<path d="M36.6352 19.9619H33.3646L33.3646 23.1926H36.6352L36.6352 19.9619Z" fill="black"/>
<path d="M43.1764 19.9619H39.9058V23.1926H43.1764V19.9619Z" fill="black"/>
<path d="M49.7175 19.9619H46.4469V23.1926H49.7175V19.9619Z" fill="black"/>
<path d="M52.9881 19.9619H49.7175V23.1926H52.9881V19.9619Z" fill="black"/>
<path d="M56.2587 19.9619H52.9881V23.1926H56.2587V19.9619Z" fill="black"/>
<path d="M59.5293 19.9619H56.2587V23.1926H59.5293V19.9619Z" fill="black"/>
<path d="M62.7999 19.9619H59.5293V23.1926H62.7999V19.9619Z" fill="black"/>
<path d="M66.0705 19.9619H62.7999V23.1926H66.0705V19.9619Z" fill="black"/>
<path d="M69.3411 19.9619H66.0705V23.1926H69.3411V19.9619Z" fill="black"/>
<path d="M39.9058 23.1926H36.6352L36.6352 26.4233H39.9058V23.1926Z" fill="black"/>
<path d="M43.1764 23.1926H39.9058V26.4233H43.1764V23.1926Z" fill="black"/>
<path d="M10.4705 26.4233H7.19987V29.654H10.4705V26.4233Z" fill="black"/>
<path d="M13.741 26.4233H10.4705V29.654H13.741V26.4233Z" fill="black"/>
<path d="M17.0116 26.4233H13.741V29.654H17.0116V26.4233Z" fill="black"/>
<path d="M20.2822 26.4233H17.0116V29.654H20.2822V26.4233Z" fill="black"/>
<path d="M23.5528 26.4233H20.2822V29.654H23.5528V26.4233Z" fill="black"/>
<path d="M26.8234 26.4233H23.5528V29.654H26.8234V26.4233Z" fill="black"/>
<path d="M39.9058 26.4233H36.6352V29.654H39.9058V26.4233Z" fill="black"/>
<path d="M43.1764 26.4233H39.9058V29.654H43.1764V26.4233Z" fill="black"/>
<path d="M46.4469 26.4233L43.1764 26.4233V29.654H46.4469V26.4233Z" fill="black"/>
<path d="M52.9881 26.4233H49.7175V29.654H52.9881V26.4233Z" fill="black"/>
<path d="M56.2587 26.4233H52.9881V29.654H56.2587V26.4233Z" fill="black"/>
<path d="M59.5293 26.4233H56.2587V29.654H59.5293V26.4233Z" fill="black"/>
<path d="M62.7999 26.4233H59.5293V29.654H62.7999V26.4233Z" fill="black"/>
<path d="M69.3411 26.4233H66.0705V29.654H69.3411V26.4233Z" fill="black"/>
<path d="M3.92928 29.654H0.658691V32.8847H3.92928V29.654Z" fill="black"/>
<path d="M7.19987 29.654L3.92928 29.654V32.8847H7.19987V29.654Z" fill="black"/>
<path d="M30.094 29.654L26.8234 29.654L26.8234 32.8847H30.094V29.654Z" fill="black"/>
<path d="M33.3646 29.654H30.094V32.8847H33.3646V29.654Z" fill="black"/>
<path d="M36.6352 29.654L33.3646 29.654V32.8847H36.6352L36.6352 29.654Z" fill="black"/>
<path d="M43.1764 29.654H39.9058V32.8847H43.1764V29.654Z" fill="black"/>
<path d="M46.4469 29.654H43.1764V32.8847H46.4469V29.654Z" fill="black"/>
<path d="M49.7175 29.654H46.4469V32.8847H49.7175V29.654Z" fill="black"/>
<path d="M52.9881 29.654H49.7175V32.8847H52.9881V29.654Z" fill="black"/>
<path d="M56.2587 29.654H52.9881V32.8847H56.2587V29.654Z" fill="black"/>
<path d="M59.5293 29.654H56.2587V32.8847H59.5293V29.654Z" fill="black"/>
<path d="M7.19987 32.8847H3.92928V36.1154H7.19987V32.8847Z" fill="black"/>
<path d="M23.5528 32.8847H20.2822V36.1154H23.5528V32.8847Z" fill="black"/>
<path d="M26.8234 32.8847L23.5528 32.8847V36.1154H26.8234L26.8234 32.8847Z" fill="black"/>
<path d="M39.9058 32.8847H36.6352L36.6352 36.1154H39.9058V32.8847Z" fill="black"/>
<path d="M43.1764 32.8847H39.9058V36.1154H43.1764V32.8847Z" fill="black"/>
<path d="M56.2587 32.8847H52.9881V36.1154H56.2587V32.8847Z" fill="black"/>
<path d="M62.7999 32.8847L59.5293 32.8847V36.1154H62.7999V32.8847Z" fill="black"/>
<path d="M66.0705 32.8847H62.7999V36.1154H66.0705V32.8847Z" fill="black"/>
<path d="M3.92928 36.1154H0.658691V39.3461H3.92928V36.1154Z" fill="black"/>
<path d="M17.0116 36.1154H13.741V39.3461H17.0116V36.1154Z" fill="black"/>
<path d="M26.8234 36.1154H23.5528V39.3461H26.8234V36.1154Z" fill="black"/>
<path d="M36.6352 36.1154H33.3646V39.3461H36.6352L36.6352 36.1154Z" fill="black"/>
<path d="M43.1764 36.1154H39.9058V39.3461H43.1764V36.1154Z" fill="black"/>
<path d="M46.4469 36.1154H43.1764V39.3461H46.4469V36.1154Z" fill="black"/>
<path d="M52.9881 36.1154H49.7175V39.3461H52.9881V36.1154Z" fill="black"/>
<path d="M62.7999 36.1154H59.5293V39.3461H62.7999V36.1154Z" fill="black"/>
<path d="M69.3411 36.1154H66.0705V39.3461H69.3411V36.1154Z" fill="black"/>
<path d="M3.92928 39.3461H0.658691V42.5768H3.92928V39.3461Z" fill="black"/>
<path d="M10.4705 39.3461H7.19987V42.5768H10.4705V39.3461Z" fill="black"/>
<path d="M17.0116 39.3461H13.741V42.5768H17.0116V39.3461Z" fill="black"/>
<path d="M20.2822 39.3461H17.0116V42.5768H20.2822V39.3461Z" fill="black"/>
<path d="M23.5528 39.3461H20.2822V42.5768H23.5528V39.3461Z" fill="black"/>
<path d="M26.8234 39.3461H23.5528V42.5768H26.8234V39.3461Z" fill="black"/>
<path d="M30.094 39.3461H26.8234V42.5768H30.094V39.3461Z" fill="black"/>
<path d="M33.3646 39.3461H30.094V42.5768H33.3646L33.3646 39.3461Z" fill="black"/>
<path d="M46.4469 39.3461H43.1764V42.5768H46.4469V39.3461Z" fill="black"/>
<path d="M49.7175 39.3461H46.4469V42.5768H49.7175V39.3461Z" fill="black"/>
<path d="M52.9881 39.3461H49.7175V42.5768H52.9881V39.3461Z" fill="black"/>
<path d="M56.2587 39.3461H52.9881V42.5768H56.2587V39.3461Z" fill="black"/>
<path d="M59.5293 39.3461H56.2587V42.5768H59.5293V39.3461Z" fill="black"/>
<path d="M36.6352 42.5768H33.3646L33.3646 45.8075H36.6352V42.5768Z" fill="black"/>
<path d="M43.1764 42.5768H39.9058V45.8075H43.1764V42.5768Z" fill="black"/>
<path d="M46.4469 42.5768H43.1764V45.8075H46.4469V42.5768Z" fill="black"/>
<path d="M52.9881 42.5768H49.7175V45.8075H52.9881V42.5768Z" fill="black"/>
<path d="M62.7999 42.5768H59.5293V45.8075H62.7999V42.5768Z" fill="black"/>
<path d="M69.3411 42.5768H66.0705V45.8075H69.3411V42.5768Z" fill="black"/>
<path d="M3.92928 45.8075H0.658691V49.0382H3.92928V45.8075Z" fill="black"/>
<path d="M7.19987 45.8075H3.92928V49.0382H7.19987V45.8075Z" fill="black"/>
<path d="M10.4705 45.8075H7.19987V49.0382H10.4705V45.8075Z" fill="black"/>
<path d="M13.741 45.8075H10.4705V49.0382H13.741V45.8075Z" fill="black"/>
<path d="M17.0116 45.8075H13.741V49.0382H17.0116V45.8075Z" fill="black"/>
<path d="M20.2822 45.8075H17.0116V49.0382H20.2822V45.8075Z" fill="black"/>
<path d="M23.5528 45.8075H20.2822V49.0382H23.5528V45.8075Z" fill="black"/>
<path d="M30.094 45.8075H26.8234V49.0382H30.094V45.8075Z" fill="black"/>
<path d="M46.4469 45.8075H43.1764V49.0382H46.4469V45.8075Z" fill="black"/>
<path d="M49.7175 45.8075H46.4469V49.0382H49.7175V45.8075Z" fill="black"/>
<path d="M52.9881 45.8075H49.7175V49.0382H52.9881V45.8075Z" fill="black"/>
<path d="M3.92928 49.0382H0.658691V52.2689H3.92928V49.0382Z" fill="black"/>
<path d="M23.5528 49.0382H20.2822V52.2689H23.5528V49.0382Z" fill="black"/>
<path d="M30.094 49.0382H26.8234V52.2689H30.094V49.0382Z" fill="black"/>
<path d="M33.3646 49.0382H30.094V52.2689H33.3646V49.0382Z" fill="black"/>
<path d="M39.9058 49.0382H36.6352V52.2689H39.9058V49.0382Z" fill="black"/>
<path d="M49.7175 49.0382H46.4469V52.2689H49.7175V49.0382Z" fill="black"/>
<path d="M56.2587 49.0382H52.9881V52.2689H56.2587V49.0382Z" fill="black"/>
<path d="M59.5293 49.0382H56.2587V52.2689H59.5293V49.0382Z" fill="black"/>
<path d="M66.0705 49.0382H62.7999V52.2689H66.0705V49.0382Z" fill="black"/>
<path d="M3.92928 52.2689H0.658691V55.4996H3.92928V52.2689Z" fill="black"/>
<path d="M10.4705 52.2689H7.19987V55.4996H10.4705V52.2689Z" fill="black"/>
<path d="M13.741 52.2689H10.4705V55.4996H13.741V52.2689Z" fill="black"/>
<path d="M17.0116 52.2689H13.741V55.4996H17.0116V52.2689Z" fill="black"/>
<path d="M23.5528 52.2689H20.2822V55.4996H23.5528V52.2689Z" fill="black"/>
<path d="M30.094 52.2689H26.8234V55.4996H30.094V52.2689Z" fill="black"/>
<path d="M36.6352 52.2689H33.3646L33.3646 55.4996H36.6352L36.6352 52.2689Z" fill="black"/>
<path d="M39.9058 52.2689H36.6352L36.6352 55.4996H39.9058V52.2689Z" fill="black"/>
<path d="M43.1764 52.2689H39.9058V55.4996H43.1764V52.2689Z" fill="black"/>
<path d="M62.7999 52.2689H59.5293V55.4996H62.7999V52.2689Z" fill="black"/>
<path d="M66.0705 52.2689H62.7999V55.4996H66.0705V52.2689Z" fill="black"/>
<path d="M69.3411 52.2689H66.0705V55.4996H69.3411V52.2689Z" fill="black"/>
<path d="M3.92928 55.4996H0.658691V58.7303H3.92928V55.4996Z" fill="black"/>
<path d="M10.4705 55.4996H7.19987V58.7303H10.4705V55.4996Z" fill="black"/>
<path d="M13.741 55.4996H10.4705V58.7303H13.741V55.4996Z" fill="black"/>
<path d="M17.0116 55.4996H13.741V58.7303H17.0116V55.4996Z" fill="black"/>
<path d="M23.5528 55.4996H20.2822V58.7303H23.5528V55.4996Z" fill="black"/>
<path d="M30.094 55.4996H26.8234V58.7303H30.094V55.4996Z" fill="black"/>
<path d="M36.6352 55.4996H33.3646V58.7303H36.6352V55.4996Z" fill="black"/>
<path d="M39.9058 55.4996H36.6352V58.7303H39.9058V55.4996Z" fill="black"/>
<path d="M46.4469 55.4996H43.1764V58.7303H46.4469V55.4996Z" fill="black"/>
<path d="M52.9881 55.4996H49.7175V58.7303H52.9881V55.4996Z" fill="black"/>
<path d="M59.5293 55.4996H56.2587V58.7303H59.5293V55.4996Z" fill="black"/>
<path d="M62.7999 55.4996H59.5293V58.7303H62.7999V55.4996Z" fill="black"/>
<path d="M3.92928 58.7303H0.658691V61.961H3.92928V58.7303Z" fill="black"/>
<path d="M10.4705 58.7303H7.19987V61.961H10.4705V58.7303Z" fill="black"/>
<path d="M13.741 58.7303H10.4705V61.961H13.741V58.7303Z" fill="black"/>
<path d="M17.0116 58.7303H13.741V61.961H17.0116V58.7303Z" fill="black"/>
<path d="M23.5528 58.7303H20.2822V61.961H23.5528V58.7303Z" fill="black"/>
<path d="M30.094 58.7303H26.8234V61.961H30.094V58.7303Z" fill="black"/>
<path d="M33.3646 58.7303H30.094V61.961H33.3646L33.3646 58.7303Z" fill="black"/>
<path d="M36.6352 58.7303H33.3646L33.3646 61.961H36.6352V58.7303Z" fill="black"/>
<path d="M39.9058 58.7303H36.6352V61.961H39.9058V58.7303Z" fill="black"/>
<path d="M49.7175 58.7303H46.4469V61.961H49.7175V58.7303Z" fill="black"/>
<path d="M52.9881 58.7303H49.7175V61.961H52.9881V58.7303Z" fill="black"/>
<path d="M66.0705 58.7303H62.7999V61.961H66.0705V58.7303Z" fill="black"/>
<path d="M69.3411 58.7303H66.0705V61.961H69.3411V58.7303Z" fill="black"/>
<path d="M3.92928 61.961H0.658691V65.1917H3.92928V61.961Z" fill="black"/>
<path d="M23.5528 61.961H20.2822V65.1917H23.5528V61.961Z" fill="black"/>
<path d="M36.6352 61.961H33.3646L33.3646 65.1917H36.6352V61.961Z" fill="black"/>
<path d="M46.4469 61.961H43.1764V65.1917H46.4469V61.961Z" fill="black"/>
<path d="M49.7175 61.961H46.4469V65.1917H49.7175V61.961Z" fill="black"/>
<path d="M56.2587 61.961H52.9881V65.1917H56.2587V61.961Z" fill="black"/>
<path d="M69.3411 61.961H66.0705V65.1917H69.3411V61.961Z" fill="black"/>
<path d="M3.92928 65.1917H0.658691V68.4224H3.92928V65.1917Z" fill="black"/>
<path d="M7.19987 65.1917H3.92928V68.4224H7.19987V65.1917Z" fill="black"/>
<path d="M10.4705 65.1917H7.19987V68.4224H10.4705V65.1917Z" fill="black"/>
<path d="M13.741 65.1917H10.4705V68.4224H13.741V65.1917Z" fill="black"/>
<path d="M17.0116 65.1917H13.741V68.4224H17.0116V65.1917Z" fill="black"/>
<path d="M20.2822 65.1917H17.0116V68.4224H20.2822V65.1917Z" fill="black"/>
<path d="M23.5528 65.1917H20.2822V68.4224H23.5528V65.1917Z" fill="black"/>
<path d="M33.3646 65.1917H30.094V68.4224H33.3646L33.3646 65.1917Z" fill="black"/>
<path d="M39.9058 65.1917H36.6352L36.6352 68.4224H39.9058V65.1917Z" fill="black"/>
<path d="M43.1764 65.1917H39.9058V68.4224H43.1764V65.1917Z" fill="black"/>
<path d="M46.4469 65.1917H43.1764V68.4224H46.4469V65.1917Z" fill="black"/>
</svg>
