<svg width="70" height="70" viewBox="0 0 70 70" fill="none" xmlns="http://www.w3.org/2000/svg">
<path d="M3.51561 0.777832H0.777832V3.51561H3.51561V0.777832Z" fill="black"/>
<path d="M6.25339 0.777832H3.51561V3.51561H6.25339V0.777832Z" fill="black"/>
<path d="M8.99116 0.777832H6.25339V3.51561H8.99116V0.777832Z" fill="black"/>
<path d="M11.7289 0.777832H8.99116V3.51561H11.7289V0.777832Z" fill="black"/>
<path d="M14.4667 0.777832H11.7289V3.51561H14.4667V0.777832Z" fill="black"/>
<path d="M17.2045 0.777832H14.4667V3.51561H17.2045V0.777832Z" fill="black"/>
<path d="M19.9423 0.777832H17.2045V3.51561H19.9423V0.777832Z" fill="black"/>
<path d="M25.4178 0.777832H22.6801V3.51561H25.4178V0.777832Z" fill="black"/>
<path d="M28.1556 0.777832H25.4178V3.51561H28.1556V0.777832Z" fill="black"/>
<path d="M30.8934 0.777832H28.1556V3.51561H30.8934V0.777832Z" fill="black"/>
<path d="M41.8445 0.777832H39.1067V3.51561H41.8445V0.777832Z" fill="black"/>
<path d="M47.32 0.777832H44.5823V3.51561H47.32V0.777832Z" fill="black"/>
<path d="M52.7956 0.777832H50.0578V3.51561H52.7956V0.777832Z" fill="black"/>
<path d="M55.5334 0.777832H52.7956V3.51561H55.5334V0.777832Z" fill="black"/>
<path d="M58.2712 0.777832H55.5334V3.51561H58.2712V0.777832Z" fill="black"/>
<path d="M61.0089 0.777832H58.2712V3.51561H61.0089V0.777832Z" fill="black"/>
<path d="M63.7467 0.777832H61.0089V3.51561H63.7467V0.777832Z" fill="black"/>
<path d="M66.4845 0.777832H63.7467V3.51561H66.4845V0.777832Z" fill="black"/>
<path d="M69.2223 0.777832H66.4845V3.51561H69.2223V0.777832Z" fill="black"/>
<path d="M3.51561 3.51561H0.777832V6.25339H3.51561V3.51561Z" fill="black"/>
<path d="M19.9423 3.51561H17.2045V6.25339H19.9423V3.51561Z" fill="black"/>
<path d="M28.1556 3.51561H25.4178V6.25339H28.1556V3.51561Z" fill="black"/>
<path d="M30.8934 3.51561H28.1556V6.25339H30.8934V3.51561Z" fill="black"/>
<path d="M33.6312 3.51561H30.8934V6.25339H33.6312V3.51561Z" fill="black"/>
<path d="M39.1067 3.51561H36.3689V6.25339H39.1067V3.51561Z" fill="black"/>
<path d="M44.5823 3.51561H41.8445L41.8445 6.25339H44.5823V3.51561Z" fill="black"/>
<path d="M47.32 3.51561H44.5823V6.25339H47.32V3.51561Z" fill="black"/>
<path d="M52.7956 3.51561H50.0578V6.25339H52.7956V3.51561Z" fill="black"/>
<path d="M69.2223 3.51561H66.4845V6.25339H69.2223V3.51561Z" fill="black"/>
<path d="M3.51561 6.25339H0.777832V8.99116H3.51561V6.25339Z" fill="black"/>
<path d="M8.99116 6.25339H6.25339V8.99116H8.99116V6.25339Z" fill="black"/>
<path d="M11.7289 6.25339H8.99116V8.99116H11.7289V6.25339Z" fill="black"/>
<path d="M14.4667 6.25339H11.7289V8.99116H14.4667V6.25339Z" fill="black"/>
<path d="M19.9423 6.25339H17.2045V8.99116H19.9423V6.25339Z" fill="black"/>
<path d="M28.1556 6.25339H25.4178V8.99116H28.1556V6.25339Z" fill="black"/>
<path d="M33.6312 6.25339H30.8934V8.99116H33.6312V6.25339Z" fill="black"/>
<path d="M39.1067 6.25339H36.3689V8.99116H39.1067V6.25339Z" fill="black"/>
<path d="M52.7956 6.25339H50.0578V8.99116H52.7956V6.25339Z" fill="black"/>
<path d="M58.2712 6.25339H55.5334V8.99116H58.2712V6.25339Z" fill="black"/>
<path d="M61.0089 6.25339H58.2712V8.99116H61.0089V6.25339Z" fill="black"/>
<path d="M63.7467 6.25339H61.0089V8.99116H63.7467V6.25339Z" fill="black"/>
<path d="M69.2223 6.25339H66.4845V8.99116H69.2223V6.25339Z" fill="black"/>
<path d="M3.51561 8.99116H0.777832V11.7289H3.51561V8.99116Z" fill="black"/>
<path d="M8.99116 8.99116H6.25339V11.7289H8.99116V8.99116Z" fill="black"/>
<path d="M11.7289 8.99116H8.99116V11.7289H11.7289V8.99116Z" fill="black"/>
<path d="M14.4667 8.99116H11.7289V11.7289H14.4667V8.99116Z" fill="black"/>
<path d="M19.9423 8.99116H17.2045V11.7289H19.9423V8.99116Z" fill="black"/>
<path d="M25.4178 8.99116H22.6801V11.7289H25.4178V8.99116Z" fill="black"/>
<path d="M28.1556 8.99116H25.4178V11.7289H28.1556V8.99116Z" fill="black"/>
<path d="M52.7956 8.99116H50.0578V11.7289H52.7956V8.99116Z" fill="black"/>
<path d="M58.2712 8.99116H55.5334V11.7289H58.2712V8.99116Z" fill="black"/>
<path d="M61.0089 8.99116H58.2712V11.7289H61.0089V8.99116Z" fill="black"/>
<path d="M63.7467 8.99116H61.0089V11.7289H63.7467V8.99116Z" fill="black"/>
<path d="M69.2223 8.99116H66.4845V11.7289H69.2223V8.99116Z" fill="black"/>
<path d="M3.51561 11.7289H0.777832V14.4667H3.51561V11.7289Z" fill="black"/>
<path d="M8.99116 11.7289H6.25339V14.4667H8.99116V11.7289Z" fill="black"/>
<path d="M11.7289 11.7289H8.99116V14.4667H11.7289V11.7289Z" fill="black"/>
<path d="M14.4667 11.7289H11.7289V14.4667H14.4667V11.7289Z" fill="black"/>
<path d="M19.9423 11.7289H17.2045V14.4667H19.9423V11.7289Z" fill="black"/>
<path d="M30.8934 11.7289H28.1556V14.4667H30.8934V11.7289Z" fill="black"/>
<path d="M44.5823 11.7289H41.8445V14.4667H44.5823V11.7289Z" fill="black"/>
<path d="M52.7956 11.7289H50.0578V14.4667H52.7956V11.7289Z" fill="black"/>
<path d="M58.2712 11.7289H55.5334V14.4667H58.2712V11.7289Z" fill="black"/>
<path d="M61.0089 11.7289H58.2712V14.4667H61.0089V11.7289Z" fill="black"/>
<path d="M63.7467 11.7289H61.0089V14.4667H63.7467V11.7289Z" fill="black"/>
<path d="M69.2223 11.7289H66.4845V14.4667H69.2223V11.7289Z" fill="black"/>
<path d="M3.51561 14.4667H0.777832V17.2045H3.51561V14.4667Z" fill="black"/>
<path d="M19.9423 14.4667H17.2045V17.2045H19.9423V14.4667Z" fill="black"/>
<path d="M25.4178 14.4667H22.6801V17.2045H25.4178V14.4667Z" fill="black"/>
<path d="M33.6312 14.4667H30.8934V17.2045H33.6312V14.4667Z" fill="black"/>
<path d="M39.1067 14.4667H36.3689V17.2045H39.1067V14.4667Z" fill="black"/>
<path d="M41.8445 14.4667H39.1067V17.2045H41.8445L41.8445 14.4667Z" fill="black"/>
<path d="M47.32 14.4667H44.5823V17.2045H47.32V14.4667Z" fill="black"/>
<path d="M52.7956 14.4667H50.0578V17.2045H52.7956V14.4667Z" fill="black"/>
<path d="M69.2223 14.4667H66.4845V17.2045H69.2223V14.4667Z" fill="black"/>
<path d="M3.51561 17.2045H0.777832V19.9423H3.51561V17.2045Z" fill="black"/>
<path d="M6.25339 17.2045H3.51561V19.9423H6.25339V17.2045Z" fill="black"/>
<path d="M8.99116 17.2045H6.25339V19.9423H8.99116V17.2045Z" fill="black"/>
<path d="M11.7289 17.2045H8.99116V19.9423H11.7289V17.2045Z" fill="black"/>
<path d="M14.4667 17.2045H11.7289V19.9423H14.4667V17.2045Z" fill="black"/>
<path d="M17.2045 17.2045H14.4667V19.9423H17.2045V17.2045Z" fill="black"/>
<path d="M19.9423 17.2045H17.2045V19.9423H19.9423V17.2045Z" fill="black"/>
<path d="M25.4178 17.2045H22.6801V19.9423H25.4178V17.2045Z" fill="black"/>
<path d="M30.8934 17.2045H28.1556V19.9423H30.8934V17.2045Z" fill="black"/>
<path d="M36.3689 17.2045H33.6312V19.9423H36.3689V17.2045Z" fill="black"/>
<path d="M41.8445 17.2045H39.1067V19.9423H41.8445V17.2045Z" fill="black"/>
<path d="M47.32 17.2045H44.5823V19.9423H47.32V17.2045Z" fill="black"/>
<path d="M52.7956 17.2045H50.0578V19.9423H52.7956V17.2045Z" fill="black"/>
<path d="M55.5334 17.2045H52.7956V19.9423H55.5334V17.2045Z" fill="black"/>
<path d="M58.2712 17.2045H55.5334V19.9423H58.2712V17.2045Z" fill="black"/>
<path d="M61.0089 17.2045H58.2712V19.9423H61.0089V17.2045Z" fill="black"/>
<path d="M63.7467 17.2045H61.0089V19.9423H63.7467V17.2045Z" fill="black"/>
<path d="M66.4845 17.2045H63.7467V19.9423H66.4845V17.2045Z" fill="black"/>
<path d="M69.2223 17.2045H66.4845V19.9423H69.2223V17.2045Z" fill="black"/>
<path d="M30.8934 19.9423H28.1556V22.6801H30.8934V19.9423Z" fill="black"/>
<path d="M33.6312 19.9423H30.8934V22.6801H33.6312V19.9423Z" fill="black"/>
<path d="M39.1067 19.9423H36.3689V22.6801H39.1067V19.9423Z" fill="black"/>
<path d="M44.5823 19.9423H41.8445L41.8445 22.6801H44.5823V19.9423Z" fill="black"/>
<path d="M17.2045 22.6801H14.4667V25.4178H17.2045V22.6801Z" fill="black"/>
<path d="M19.9423 22.6801H17.2045V25.4178H19.9423V22.6801Z" fill="black"/>
<path d="M25.4178 22.6801H22.6801V25.4178H25.4178V22.6801Z" fill="black"/>
<path d="M28.1556 22.6801H25.4178V25.4178H28.1556V22.6801Z" fill="black"/>
<path d="M33.6312 22.6801H30.8934V25.4178H33.6312V22.6801Z" fill="black"/>
<path d="M36.3689 22.6801H33.6312V25.4178H36.3689V22.6801Z" fill="black"/>
<path d="M39.1067 22.6801H36.3689V25.4178H39.1067V22.6801Z" fill="black"/>
<path d="M41.8445 22.6801H39.1067V25.4178H41.8445L41.8445 22.6801Z" fill="black"/>
<path d="M44.5823 22.6801H41.8445L41.8445 25.4178H44.5823V22.6801Z" fill="black"/>
<path d="M47.32 22.6801H44.5823V25.4178H47.32V22.6801Z" fill="black"/>
<path d="M50.0578 22.6801H47.32V25.4178H50.0578V22.6801Z" fill="black"/>
<path d="M55.5334 22.6801H52.7956V25.4178H55.5334V22.6801Z" fill="black"/>
<path d="M61.0089 22.6801H58.2712V25.4178H61.0089V22.6801Z" fill="black"/>
<path d="M69.2223 22.6801H66.4845V25.4178H69.2223V22.6801Z" fill="black"/>
<path d="M3.51561 25.4178H0.777832V28.1556H3.51561V25.4178Z" fill="black"/>
<path d="M6.25339 25.4178H3.51561V28.1556H6.25339V25.4178Z" fill="black"/>
<path d="M11.7289 25.4178H8.99116V28.1556H11.7289V25.4178Z" fill="black"/>
<path d="M14.4667 25.4178H11.7289V28.1556H14.4667V25.4178Z" fill="black"/>
<path d="M17.2045 25.4178H14.4667V28.1556H17.2045V25.4178Z" fill="black"/>
<path d="M22.6801 25.4178H19.9423V28.1556H22.6801V25.4178Z" fill="black"/>
<path d="M25.4178 25.4178H22.6801V28.1556H25.4178V25.4178Z" fill="black"/>
<path d="M41.8445 25.4178H39.1067V28.1556H41.8445V25.4178Z" fill="black"/>
<path d="M47.32 25.4178H44.5823V28.1556H47.32V25.4178Z" fill="black"/>
<path d="M52.7956 25.4178H50.0578V28.1556H52.7956V25.4178Z" fill="black"/>
<path d="M55.5334 25.4178H52.7956V28.1556H55.5334V25.4178Z" fill="black"/>
<path d="M58.2712 25.4178H55.5334V28.1556H58.2712V25.4178Z" fill="black"/>
<path d="M61.0089 25.4178H58.2712V28.1556H61.0089V25.4178Z" fill="black"/>
<path d="M66.4845 25.4178H63.7467V28.1556H66.4845V25.4178Z" fill="black"/>
<path d="M69.2223 25.4178H66.4845V28.1556H69.2223V25.4178Z" fill="black"/>
<path d="M3.51561 28.1556H0.777832V30.8934H3.51561V28.1556Z" fill="black"/>
<path d="M8.99116 28.1556H6.25339V30.8934H8.99116V28.1556Z" fill="black"/>
<path d="M14.4667 28.1556H11.7289V30.8934H14.4667V28.1556Z" fill="black"/>
<path d="M19.9423 28.1556H17.2045V30.8934H19.9423V28.1556Z" fill="black"/>
<path d="M25.4178 28.1556H22.6801V30.8934H25.4178V28.1556Z" fill="black"/>
<path d="M28.1556 28.1556H25.4178V30.8934H28.1556V28.1556Z" fill="black"/>
<path d="M36.3689 28.1556H33.6312V30.8934H36.3689V28.1556Z" fill="black"/>
<path d="M39.1067 28.1556H36.3689V30.8934H39.1067V28.1556Z" fill="black"/>
<path d="M47.32 28.1556H44.5823V30.8934H47.32V28.1556Z" fill="black"/>
<path d="M52.7956 28.1556H50.0578V30.8934H52.7956V28.1556Z" fill="black"/>
<path d="M55.5334 28.1556H52.7956V30.8934H55.5334V28.1556Z" fill="black"/>
<path d="M58.2712 28.1556H55.5334V30.8934H58.2712V28.1556Z" fill="black"/>
<path d="M61.0089 28.1556H58.2712V30.8934H61.0089V28.1556Z" fill="black"/>
<path d="M66.4845 28.1556H63.7467V30.8934H66.4845V28.1556Z" fill="black"/>
<path d="M69.2223 28.1556H66.4845V30.8934H69.2223V28.1556Z" fill="black"/>
<path d="M3.51561 30.8934H0.777832V33.6312H3.51561V30.8934Z" fill="black"/>
<path d="M11.7289 30.8934H8.99116V33.6312H11.7289V30.8934Z" fill="black"/>
<path d="M17.2045 30.8934H14.4667V33.6312H17.2045V30.8934Z" fill="black"/>
<path d="M25.4178 30.8934H22.6801V33.6312H25.4178V30.8934Z" fill="black"/>
<path d="M28.1556 30.8934H25.4178V33.6312H28.1556V30.8934Z" fill="black"/>
<path d="M30.8934 30.8934H28.1556V33.6312H30.8934V30.8934Z" fill="black"/>
<path d="M39.1067 30.8934H36.3689V33.6312H39.1067V30.8934Z" fill="black"/>
<path d="M47.32 30.8934H44.5823V33.6312H47.32V30.8934Z" fill="black"/>
<path d="M55.5334 30.8934H52.7956V33.6312H55.5334V30.8934Z" fill="black"/>
<path d="M58.2712 30.8934H55.5334V33.6312H58.2712V30.8934Z" fill="black"/>
<path d="M61.0089 30.8934H58.2712V33.6312H61.0089V30.8934Z" fill="black"/>
<path d="M63.7467 30.8934H61.0089V33.6312H63.7467V30.8934Z" fill="black"/>
<path d="M66.4845 30.8934H63.7467V33.6312H66.4845V30.8934Z" fill="black"/>
<path d="M69.2223 30.8934H66.4845V33.6312H69.2223V30.8934Z" fill="black"/>
<path d="M17.2045 33.6312H14.4667V36.3689H17.2045V33.6312Z" fill="black"/>
<path d="M19.9423 33.6312H17.2045V36.3689H19.9423V33.6312Z" fill="black"/>
<path d="M25.4178 33.6312H22.6801V36.3689H25.4178V33.6312Z" fill="black"/>
<path d="M30.8934 33.6312H28.1556V36.3689H30.8934V33.6312Z" fill="black"/>
<path d="M36.3689 33.6312H33.6312V36.3689H36.3689V33.6312Z" fill="black"/>
<path d="M39.1067 33.6312H36.3689V36.3689H39.1067V33.6312Z" fill="black"/>
<path d="M41.8445 33.6312H39.1067V36.3689H41.8445V33.6312Z" fill="black"/>
<path d="M44.5823 33.6312H41.8445V36.3689H44.5823V33.6312Z" fill="black"/>
<path d="M58.2712 33.6312H55.5334V36.3689H58.2712V33.6312Z" fill="black"/>
<path d="M61.0089 33.6312H58.2712V36.3689H61.0089V33.6312Z" fill="black"/>
<path d="M63.7467 33.6312H61.0089V36.3689H63.7467V33.6312Z" fill="black"/>
<path d="M66.4845 33.6312H63.7467V36.3689H66.4845V33.6312Z" fill="black"/>
<path d="M3.51561 36.3689H0.777832V39.1067H3.51561V36.3689Z" fill="black"/>
<path d="M6.25339 36.3689H3.51561V39.1067H6.25339V36.3689Z" fill="black"/>
<path d="M8.99116 36.3689H6.25339V39.1067H8.99116V36.3689Z" fill="black"/>
<path d="M11.7289 36.3689H8.99116V39.1067H11.7289V36.3689Z" fill="black"/>
<path d="M14.4667 36.3689H11.7289V39.1067H14.4667V36.3689Z" fill="black"/>
<path d="M17.2045 36.3689H14.4667V39.1067H17.2045V36.3689Z" fill="black"/>
<path d="M44.5823 36.3689H41.8445L41.8445 39.1067H44.5823V36.3689Z" fill="black"/>
<path d="M47.32 36.3689H44.5823V39.1067H47.32V36.3689Z" fill="black"/>
<path d="M52.7956 36.3689H50.0578V39.1067H52.7956V36.3689Z" fill="black"/>
<path d="M55.5334 36.3689H52.7956V39.1067H55.5334V36.3689Z" fill="black"/>
<path d="M61.0089 36.3689H58.2712V39.1067H61.0089V36.3689Z" fill="black"/>
<path d="M63.7467 36.3689H61.0089V39.1067H63.7467V36.3689Z" fill="black"/>
<path d="M66.4845 36.3689H63.7467V39.1067H66.4845V36.3689Z" fill="black"/>
<path d="M6.25339 39.1067H3.51561V41.8445H6.25339V39.1067Z" fill="black"/>
<path d="M11.7289 39.1067H8.99116V41.8445H11.7289V39.1067Z" fill="black"/>
<path d="M14.4667 39.1067H11.7289V41.8445H14.4667V39.1067Z" fill="black"/>
<path d="M17.2045 39.1067H14.4667V41.8445H17.2045V39.1067Z" fill="black"/>
<path d="M19.9423 39.1067H17.2045V41.8445H19.9423V39.1067Z" fill="black"/>
<path d="M22.6801 39.1067H19.9423V41.8445H22.6801V39.1067Z" fill="black"/>
<path d="M28.1556 39.1067H25.4178V41.8445H28.1556V39.1067Z" fill="black"/>
<path d="M33.6312 39.1067H30.8934V41.8445H33.6312V39.1067Z" fill="black"/>
<path d="M44.5823 39.1067H41.8445V41.8445H44.5823V39.1067Z" fill="black"/>
<path d="M47.32 39.1067H44.5823V41.8445H47.32V39.1067Z" fill="black"/>
<path d="M58.2712 39.1067H55.5334V41.8445H58.2712V39.1067Z" fill="black"/>
<path d="M63.7467 39.1067H61.0089V41.8445H63.7467V39.1067Z" fill="black"/>
<path d="M69.2223 39.1067H66.4845V41.8445H69.2223V39.1067Z" fill="black"/>
<path d="M6.25339 41.8445H3.51561V44.5823H6.25339V41.8445Z" fill="black"/>
<path d="M11.7289 41.8445H8.99116V44.5823H11.7289V41.8445Z" fill="black"/>
<path d="M25.4178 41.8445H22.6801V44.5823H25.4178V41.8445Z" fill="black"/>
<path d="M28.1556 41.8445H25.4178V44.5823H28.1556V41.8445Z" fill="black"/>
<path d="M33.6312 41.8445H30.8934V44.5823H33.6312V41.8445Z" fill="black"/>
<path d="M39.1067 41.8445H36.3689V44.5823H39.1067V41.8445Z" fill="black"/>
<path d="M41.8445 41.8445L39.1067 41.8445V44.5823H41.8445L41.8445 41.8445Z" fill="black"/>
<path d="M47.32 41.8445H44.5823V44.5823H47.32V41.8445Z" fill="black"/>
<path d="M50.0578 41.8445L47.32 41.8445V44.5823H50.0578V41.8445Z" fill="black"/>
<path d="M55.5334 41.8445L52.7956 41.8445V44.5823H55.5334V41.8445Z" fill="black"/>
<path d="M66.4845 41.8445H63.7467V44.5823H66.4845V41.8445Z" fill="black"/>
<path d="M69.2223 41.8445H66.4845V44.5823H69.2223V41.8445Z" fill="black"/>
<path d="M3.51561 44.5823H0.777832V47.32H3.51561V44.5823Z" fill="black"/>
<path d="M8.99116 44.5823H6.25339V47.32H8.99116V44.5823Z" fill="black"/>
<path d="M14.4667 44.5823H11.7289V47.32H14.4667V44.5823Z" fill="black"/>
<path d="M19.9423 44.5823H17.2045V47.32H19.9423V44.5823Z" fill="black"/>
<path d="M30.8934 44.5823H28.1556V47.32H30.8934V44.5823Z" fill="black"/>
<path d="M36.3689 44.5823H33.6312V47.32H36.3689V44.5823Z" fill="black"/>
<path d="M41.8445 44.5823H39.1067V47.32H41.8445V44.5823Z" fill="black"/>
<path d="M44.5823 44.5823H41.8445V47.32H44.5823V44.5823Z" fill="black"/>
<path d="M47.32 44.5823H44.5823V47.32H47.32V44.5823Z" fill="black"/>
<path d="M50.0578 44.5823H47.32V47.32H50.0578V44.5823Z" fill="black"/>
<path d="M52.7956 44.5823H50.0578V47.32H52.7956V44.5823Z" fill="black"/>
<path d="M55.5334 44.5823H52.7956V47.32H55.5334V44.5823Z" fill="black"/>
<path d="M58.2712 44.5823H55.5334V47.32H58.2712V44.5823Z" fill="black"/>
<path d="M61.0089 44.5823H58.2712V47.32H61.0089V44.5823Z" fill="black"/>
<path d="M63.7467 44.5823H61.0089V47.32H63.7467V44.5823Z" fill="black"/>
<path d="M66.4845 44.5823H63.7467V47.32H66.4845V44.5823Z" fill="black"/>
<path d="M69.2223 44.5823H66.4845V47.32H69.2223V44.5823Z" fill="black"/>
<path d="M25.4178 47.32H22.6801V50.0578H25.4178V47.32Z" fill="black"/>
<path d="M28.1556 47.32H25.4178V50.0578H28.1556V47.32Z" fill="black"/>
<path d="M36.3689 47.32H33.6312V50.0578H36.3689V47.32Z" fill="black"/>
<path d="M39.1067 47.32H36.3689V50.0578H39.1067V47.32Z" fill="black"/>
<path d="M47.32 47.32H44.5823V50.0578H47.32V47.32Z" fill="black"/>
<path d="M58.2712 47.32H55.5334V50.0578H58.2712V47.32Z" fill="black"/>
<path d="M66.4845 47.32H63.7467V50.0578H66.4845V47.32Z" fill="black"/>
<path d="M69.2223 47.32H66.4845V50.0578H69.2223V47.32Z" fill="black"/>
<path d="M3.51561 50.0578H0.777832V52.7956H3.51561V50.0578Z" fill="black"/>
<path d="M6.25339 50.0578H3.51561V52.7956H6.25339V50.0578Z" fill="black"/>
<path d="M8.99116 50.0578H6.25339V52.7956H8.99116V50.0578Z" fill="black"/>
<path d="M11.7289 50.0578H8.99116V52.7956H11.7289V50.0578Z" fill="black"/>
<path d="M14.4667 50.0578H11.7289V52.7956H14.4667V50.0578Z" fill="black"/>
<path d="M17.2045 50.0578H14.4667V52.7956H17.2045V50.0578Z" fill="black"/>
<path d="M19.9423 50.0578H17.2045V52.7956H19.9423V50.0578Z" fill="black"/>
<path d="M28.1556 50.0578H25.4178V52.7956H28.1556V50.0578Z" fill="black"/>
<path d="M30.8934 50.0578H28.1556V52.7956H30.8934V50.0578Z" fill="black"/>
<path d="M33.6312 50.0578H30.8934V52.7956H33.6312V50.0578Z" fill="black"/>
<path d="M36.3689 50.0578H33.6312V52.7956H36.3689V50.0578Z" fill="black"/>
<path d="M39.1067 50.0578H36.3689V52.7956H39.1067V50.0578Z" fill="black"/>
<path d="M44.5823 50.0578H41.8445V52.7956H44.5823V50.0578Z" fill="black"/>
<path d="M47.32 50.0578H44.5823V52.7956H47.32V50.0578Z" fill="black"/>
<path d="M52.7956 50.0578H50.0578V52.7956H52.7956V50.0578Z" fill="black"/>
<path d="M58.2712 50.0578H55.5334V52.7956H58.2712V50.0578Z" fill="black"/>
<path d="M66.4845 50.0578H63.7467V52.7956H66.4845V50.0578Z" fill="black"/>
<path d="M3.51561 52.7956H0.777832V55.5334H3.51561V52.7956Z" fill="black"/>
<path d="M19.9423 52.7956H17.2045V55.5334H19.9423V52.7956Z" fill="black"/>
<path d="M25.4178 52.7956H22.6801V55.5334H25.4178V52.7956Z" fill="black"/>
<path d="M39.1067 52.7956H36.3689V55.5334H39.1067V52.7956Z" fill="black"/>
<path d="M41.8445 52.7956H39.1067V55.5334H41.8445L41.8445 52.7956Z" fill="black"/>
<path d="M44.5823 52.7956H41.8445L41.8445 55.5334H44.5823V52.7956Z" fill="black"/>
<path d="M47.32 52.7956H44.5823V55.5334H47.32V52.7956Z" fill="black"/>
<path d="M58.2712 52.7956H55.5334V55.5334H58.2712V52.7956Z" fill="black"/>
<path d="M61.0089 52.7956H58.2712V55.5334H61.0089V52.7956Z" fill="black"/>
<path d="M3.51561 55.5334H0.777832V58.2712H3.51561V55.5334Z" fill="black"/>
<path d="M8.99116 55.5334H6.25339V58.2712H8.99116V55.5334Z" fill="black"/>
<path d="M11.7289 55.5334H8.99116V58.2712H11.7289V55.5334Z" fill="black"/>
<path d="M14.4667 55.5334H11.7289V58.2712H14.4667V55.5334Z" fill="black"/>
<path d="M19.9423 55.5334H17.2045V58.2712H19.9423V55.5334Z" fill="black"/>
<path d="M30.8934 55.5334H28.1556V58.2712H30.8934V55.5334Z" fill="black"/>
<path d="M33.6312 55.5334H30.8934V58.2712H33.6312V55.5334Z" fill="black"/>
<path d="M41.8445 55.5334H39.1067V58.2712H41.8445V55.5334Z" fill="black"/>
<path d="M47.32 55.5334H44.5823V58.2712H47.32V55.5334Z" fill="black"/>
<path d="M50.0578 55.5334H47.32V58.2712H50.0578V55.5334Z" fill="black"/>
<path d="M52.7956 55.5334H50.0578V58.2712H52.7956V55.5334Z" fill="black"/>
<path d="M55.5334 55.5334H52.7956V58.2712H55.5334V55.5334Z" fill="black"/>
<path d="M58.2712 55.5334H55.5334V58.2712H58.2712V55.5334Z" fill="black"/>
<path d="M61.0089 55.5334H58.2712V58.2712H61.0089V55.5334Z" fill="black"/>
<path d="M63.7467 55.5334H61.0089V58.2712H63.7467V55.5334Z" fill="black"/>
<path d="M66.4845 55.5334H63.7467V58.2712H66.4845V55.5334Z" fill="black"/>
<path d="M69.2223 55.5334H66.4845V58.2712H69.2223V55.5334Z" fill="black"/>
<path d="M3.51561 58.2712H0.777832V61.0089H3.51561V58.2712Z" fill="black"/>
<path d="M8.99116 58.2712H6.25339V61.0089H8.99116V58.2712Z" fill="black"/>
<path d="M11.7289 58.2712H8.99116V61.0089H11.7289V58.2712Z" fill="black"/>
<path d="M14.4667 58.2712H11.7289V61.0089H14.4667V58.2712Z" fill="black"/>
<path d="M19.9423 58.2712H17.2045V61.0089H19.9423V58.2712Z" fill="black"/>
<path d="M28.1556 58.2712H25.4178V61.0089H28.1556V58.2712Z" fill="black"/>
<path d="M30.8934 58.2712H28.1556V61.0089H30.8934V58.2712Z" fill="black"/>
<path d="M36.3689 58.2712H33.6312V61.0089H36.3689V58.2712Z" fill="black"/>
<path d="M44.5823 58.2712H41.8445L41.8445 61.0089H44.5823V58.2712Z" fill="black"/>
<path d="M50.0578 58.2712H47.32V61.0089H50.0578V58.2712Z" fill="black"/>
<path d="M3.51561 61.0089H0.777832V63.7467H3.51561V61.0089Z" fill="black"/>
<path d="M8.99116 61.0089H6.25339V63.7467H8.99116V61.0089Z" fill="black"/>
<path d="M11.7289 61.0089H8.99116V63.7467H11.7289V61.0089Z" fill="black"/>
<path d="M14.4667 61.0089H11.7289V63.7467H14.4667V61.0089Z" fill="black"/>
<path d="M19.9423 61.0089H17.2045V63.7467H19.9423V61.0089Z" fill="black"/>
<path d="M39.1067 61.0089H36.3689V63.7467H39.1067V61.0089Z" fill="black"/>
<path d="M41.8445 61.0089H39.1067V63.7467H41.8445L41.8445 61.0089Z" fill="black"/>
<path d="M47.32 61.0089H44.5823V63.7467H47.32V61.0089Z" fill="black"/>
<path d="M52.7956 61.0089H50.0578V63.7467H52.7956V61.0089Z" fill="black"/>
<path d="M55.5334 61.0089H52.7956V63.7467H55.5334V61.0089Z" fill="black"/>
<path d="M63.7467 61.0089H61.0089V63.7467H63.7467V61.0089Z" fill="black"/>
<path d="M3.51561 63.7467H0.777832V66.4845H3.51561V63.7467Z" fill="black"/>
<path d="M19.9423 63.7467H17.2045V66.4845H19.9423V63.7467Z" fill="black"/>
<path d="M28.1556 63.7467H25.4178V66.4845H28.1556V63.7467Z" fill="black"/>
<path d="M30.8934 63.7467H28.1556V66.4845H30.8934V63.7467Z" fill="black"/>
<path d="M39.1067 63.7467H36.3689V66.4845H39.1067V63.7467Z" fill="black"/>
<path d="M52.7956 63.7467H50.0578V66.4845H52.7956V63.7467Z" fill="black"/>
<path d="M61.0089 63.7467H58.2712V66.4845H61.0089V63.7467Z" fill="black"/>
<path d="M69.2223 63.7467H66.4845V66.4845H69.2223V63.7467Z" fill="black"/>
<path d="M3.51561 66.4845H0.777832V69.2223H3.51561V66.4845Z" fill="black"/>
<path d="M6.25339 66.4845H3.51561V69.2223H6.25339V66.4845Z" fill="black"/>
<path d="M8.99116 66.4845H6.25339V69.2223H8.99116V66.4845Z" fill="black"/>
<path d="M11.7289 66.4845H8.99116V69.2223H11.7289V66.4845Z" fill="black"/>
<path d="M14.4667 66.4845H11.7289V69.2223H14.4667V66.4845Z" fill="black"/>
<path d="M17.2045 66.4845H14.4667V69.2223H17.2045V66.4845Z" fill="black"/>
<path d="M19.9423 66.4845H17.2045V69.2223H19.9423V66.4845Z" fill="black"/>
<path d="M28.1556 66.4845H25.4178V69.2223H28.1556V66.4845Z" fill="black"/>
<path d="M30.8934 66.4845H28.1556V69.2223H30.8934V66.4845Z" fill="black"/>
<path d="M39.1067 66.4845H36.3689V69.2223H39.1067V66.4845Z" fill="black"/>
<path d="M41.8445 66.4845H39.1067V69.2223H41.8445V66.4845Z" fill="black"/>
<path d="M44.5823 66.4845H41.8445V69.2223H44.5823V66.4845Z" fill="black"/>
<path d="M47.32 66.4845H44.5823V69.2223H47.32V66.4845Z" fill="black"/>
<path d="M50.0578 66.4845H47.32V69.2223H50.0578V66.4845Z" fill="black"/>
<path d="M52.7956 66.4845H50.0578V69.2223H52.7956V66.4845Z" fill="black"/>
<path d="M63.7467 66.4845H61.0089V69.2223H63.7467V66.4845Z" fill="black"/>
<path d="M69.2223 66.4845H66.4845V69.2223H69.2223V66.4845Z" fill="black"/>
</svg>
