<svg width="13" height="21" viewBox="0 0 13 21" fill="none" xmlns="http://www.w3.org/2000/svg">
<path d="M12.2773 1.25156C12.2773 1.10704 12.2199 0.968436 12.1177 0.866243C12.0155 0.764051 11.8769 0.706639 11.7324 0.706639H9.00781C7.63583 0.638296 6.29257 1.11576 5.27153 2.0347C4.25048 2.95364 3.63465 4.23936 3.55859 5.61094V8.55351H0.833984C0.689462 8.55351 0.550859 8.61093 0.448667 8.71312C0.346474 8.81531 0.289062 8.95391 0.289062 9.09844V11.932C0.289062 12.0766 0.346474 12.2152 0.448667 12.3173C0.550859 12.4195 0.689462 12.477 0.833984 12.477H3.55859V19.7789C3.55859 19.9234 3.616 20.062 3.7182 20.1642C3.82039 20.2664 3.95899 20.3238 4.10352 20.3238H7.37305C7.51757 20.3238 7.65617 20.2664 7.75837 20.1642C7.86056 20.062 7.91797 19.9234 7.91797 19.7789V12.477H10.7734C10.8945 12.4787 11.0128 12.44 11.1096 12.367C11.2063 12.2939 11.2759 12.1907 11.3074 12.0737L12.0921 9.24012C12.1138 9.1596 12.1167 9.07518 12.1006 8.99336C12.0845 8.91155 12.0499 8.83451 11.9993 8.76818C11.9488 8.70186 11.8837 8.64801 11.8091 8.6108C11.7345 8.57358 11.6523 8.55398 11.5689 8.55351H7.91797V5.61094C7.94508 5.34117 8.07176 5.0912 8.27328 4.90983C8.47481 4.72846 8.7367 4.62872 9.00781 4.63008H11.7324C11.8769 4.63008 12.0155 4.57267 12.1177 4.47047C12.2199 4.36828 12.2773 4.22968 12.2773 4.08515V1.25156Z" fill="#C78B8B"/>
</svg>
