<svg width="22" height="35" viewBox="0 0 22 35" fill="none" xmlns="http://www.w3.org/2000/svg">
<path d="M21.1563 1.91767C21.1563 1.67093 21.0583 1.43429 20.8838 1.25982C20.7093 1.08534 20.4727 0.98732 20.2259 0.98732H15.5741C13.2317 0.870637 10.9384 1.68581 9.19512 3.25474C7.45187 4.82367 6.40045 7.0188 6.2706 9.36051V14.3844H1.61883C1.37209 14.3844 1.13545 14.4824 0.960971 14.6569C0.786496 14.8314 0.688477 15.068 0.688477 15.3148V20.1526C0.688477 20.3994 0.786496 20.636 0.960971 20.8105C1.13545 20.985 1.37209 21.083 1.61883 21.083H6.2706V33.5497C6.2706 33.7965 6.36862 34.0331 6.5431 34.2076C6.71757 34.3821 6.95421 34.4801 7.20096 34.4801H12.7831C13.0298 34.4801 13.2665 34.3821 13.4409 34.2076C13.6154 34.0331 13.7134 33.7965 13.7134 33.5497V21.083H18.5885C18.7954 21.0859 18.9974 21.0199 19.1625 20.8952C19.3276 20.7705 19.4465 20.5943 19.5002 20.3945L20.84 15.5567C20.877 15.4192 20.8819 15.2751 20.8545 15.1354C20.827 14.9957 20.7679 14.8642 20.6816 14.7509C20.5954 14.6377 20.4842 14.5458 20.3568 14.4822C20.2295 14.4187 20.0892 14.3852 19.9468 14.3844H13.7134V9.36051C13.7597 8.89994 13.976 8.47316 14.3201 8.1635C14.6641 7.85385 15.1113 7.68355 15.5741 7.68587H20.2259C20.4727 7.68587 20.7093 7.58785 20.8838 7.41338C21.0583 7.2389 21.1563 7.00226 21.1563 6.75552V1.91767Z" fill="#0E0E0E"/>
</svg>
