<svg width="34" height="34" viewBox="0 0 34 34" fill="none" xmlns="http://www.w3.org/2000/svg">
<path d="M32.6345 23.5804L25.3866 20.4742C25.077 20.3422 24.7329 20.3144 24.4061 20.3949C24.0793 20.4755 23.7875 20.66 23.5747 20.9207L20.3649 24.8423C15.3274 22.4672 11.2734 18.4132 8.89833 13.3758L12.82 10.166C13.0812 9.95352 13.2661 9.66173 13.3467 9.33478C13.4272 9.00783 13.3991 8.66354 13.2665 8.35402L10.1602 1.10613C10.0147 0.772472 9.75732 0.500052 9.43245 0.335845C9.10757 0.171637 8.73559 0.125932 8.38063 0.206613L1.65044 1.75973C1.30822 1.83876 1.00289 2.03145 0.78428 2.30635C0.565672 2.58126 0.446699 2.92215 0.446777 3.27338C0.446777 19.8723 13.9007 33.3003 30.4737 33.3003C30.8251 33.3006 31.1661 33.1817 31.4412 32.963C31.7162 32.7444 31.909 32.439 31.988 32.0967L33.5412 25.3665C33.6213 25.0098 33.5746 24.6363 33.4092 24.3103C33.2437 23.9844 32.9698 23.7262 32.6345 23.5804Z" fill="#0E0E0E"/>
</svg>
