<svg width="21" height="21" viewBox="0 0 21 21" fill="none" xmlns="http://www.w3.org/2000/svg">
<path d="M19.5716 14.5256L15.3264 12.7063C15.145 12.629 14.9435 12.6127 14.7521 12.6599C14.5607 12.707 14.3898 12.8151 14.2651 12.9678L12.3851 15.2648C9.43456 13.8736 7.06008 11.4991 5.66895 8.54864L7.9659 6.66863C8.11891 6.54418 8.2272 6.37327 8.27439 6.18178C8.32158 5.99028 8.3051 5.78862 8.22743 5.60733L6.40807 1.36214C6.32283 1.16671 6.17207 1.00715 5.98178 0.91097C5.7915 0.814791 5.57362 0.788022 5.36572 0.835277L1.42376 1.74496C1.22331 1.79125 1.04447 1.90411 0.91643 2.06513C0.788388 2.22614 0.718704 2.4258 0.71875 2.63152C0.71875 12.3538 8.59889 20.2188 18.306 20.2188C18.5118 20.2189 18.7115 20.1492 18.8726 20.0212C19.0337 19.8931 19.1466 19.7143 19.1929 19.5137L20.1026 15.5718C20.1496 15.3629 20.1222 15.1441 20.0253 14.9532C19.9284 14.7622 19.7679 14.6111 19.5716 14.5256Z" fill="#C78B8B"/>
</svg>
