<svg width="36" height="34" viewBox="0 0 36 34" fill="none" xmlns="http://www.w3.org/2000/svg">
<path d="M6.99264 29.0654C6.85606 29.0047 6.75748 28.9364 6.91681 28.7998C7.0154 28.724 7.12167 28.6557 7.2278 28.5874C8.22164 27.9426 9.15488 27.2369 9.76931 26.1976C10.2852 25.3328 10.2018 24.8243 9.55691 24.1871C5.96081 20.591 4.38283 16.2894 5.17182 11.2063C5.61938 8.33854 6.93189 5.85762 8.84375 3.70306C9.99693 2.39809 11.3702 1.34364 12.8723 0.463605C12.9634 0.41054 13.0924 0.395319 13.1075 0.258747C13.0772 0.182921 13.024 0.205683 12.9785 0.205683C10.4217 0.205683 7.86499 0.152618 5.31593 0.220904C2.873 0.29673 0.763964 2.18569 0.771505 4.89422C0.786726 12.8071 0.771505 20.72 0.771505 28.6405C0.771505 31.0987 2.64538 33.1546 5.09585 33.2457C7.16705 33.3292 9.23825 33.2609 11.317 33.2532C11.4688 33.2608 11.6204 33.2684 11.7722 33.2684H22.7274C25.4586 33.2684 28.1899 33.2837 30.921 33.2684C33.455 33.2684 35.511 31.22 35.511 28.6937V24.21C35.511 24.1038 35.549 23.99 35.4807 23.8763C35.3441 23.8838 35.291 23.9976 35.2151 24.0736C33.7432 25.553 32.0059 26.7441 30.1016 27.5862C25.4358 29.6422 20.6865 29.7863 15.869 28.1325C15.4517 27.9807 14.9965 27.9656 14.564 28.0717C13.9266 28.2311 13.297 28.4207 12.6673 28.6103C10.8162 29.1869 8.92712 29.4449 6.9925 29.0656L6.99264 29.0654Z" fill="#0E0E0E"/>
<path d="M11.3096 33.2605C9.23844 33.2605 7.15971 33.3288 5.08851 33.2529C2.63804 33.1543 0.76416 31.0984 0.76416 28.6478C0.76416 20.7348 0.779381 12.8219 0.76416 4.90147C0.76416 2.19294 2.88074 0.303838 5.31613 0.235552C7.86533 0.167266 10.4219 0.220331 12.9787 0.220331C13.0242 0.220331 13.0849 0.197569 13.1077 0.273396C13.0925 0.409967 12.9559 0.425189 12.8725 0.478253C11.3704 1.35829 9.99713 2.41288 8.84395 3.71771C6.93963 5.87227 5.61957 8.34564 5.17202 11.2209C4.38303 16.2964 5.96868 20.6057 9.55711 24.2018C10.1944 24.8466 10.2778 25.3474 9.76951 26.2122C9.15494 27.2516 8.22184 27.9572 7.22799 28.6021C7.12172 28.6628 7.01559 28.7387 6.90932 28.8069C6.74999 28.9435 6.84858 29.0118 6.98515 29.0725C7.01545 29.1408 7.05344 29.2016 7.09896 29.2622C7.97145 30.0361 8.79843 30.8629 9.6557 31.652C10.0577 32.0238 10.4599 32.4107 10.8469 32.7977C11.0062 32.9418 11.2717 32.9873 11.3096 33.2605Z" fill="#0E0E0E"/>
<path d="M11.3094 33.2614C11.2714 32.9958 11.0059 32.9504 10.8466 32.7911C10.4596 32.3966 10.0576 32.0172 9.65541 31.6454C8.79814 30.8564 7.97117 30.0295 7.09867 29.2556C7.05315 29.1948 7.01517 29.1342 6.98486 29.0659C8.91949 29.4452 10.8086 29.1873 12.6672 28.6184C13.2969 28.4287 13.9267 28.2391 14.5639 28.0798C14.9964 27.966 15.4515 27.9887 15.8689 28.1405C20.6789 29.7944 25.428 29.6427 30.1015 27.5942C32.0058 26.752 33.7431 25.5685 35.215 24.0892C35.2908 24.0133 35.344 23.8995 35.4806 23.8918C35.5489 23.9981 35.5109 24.1119 35.5109 24.2256V28.6638C35.5261 31.1977 33.4929 33.2612 30.9589 33.284H30.9209C28.1898 33.2992 25.4585 33.284 22.7273 33.284H11.7646C11.6128 33.2688 11.4611 33.2612 11.3094 33.2612V33.2614Z" fill="#0E0E0E"/>
<path d="M12.6638 16.7948C13.8094 16.7948 14.8867 16.7873 15.9565 16.7948C16.5558 16.8023 16.882 17.0527 16.9428 17.5307C17.0111 18.1301 16.6621 18.5321 16.0097 18.5398C14.7807 18.555 13.5592 18.5473 12.3301 18.5473C11.9735 18.5473 11.6244 18.5626 11.2679 18.5398C10.8279 18.517 10.3954 18.426 10.183 17.9707C9.97063 17.5155 10.1223 17.1059 10.4106 16.7341C11.579 15.2471 12.755 13.7525 13.9309 12.2655C13.9992 12.1744 14.0675 12.0834 14.1358 11.9999C14.06 11.8708 13.9537 11.9316 13.8626 11.924C13.0432 11.9165 12.2164 11.924 11.397 11.9165C11.2073 11.9165 11.0177 11.8937 10.8356 11.8557C10.4031 11.7572 10.1376 11.3247 10.2362 10.8999C10.3045 10.6115 10.5321 10.3764 10.8204 10.3081C11.0025 10.2625 11.1921 10.2398 11.3817 10.2398C12.7322 10.2322 14.0901 10.2322 15.4406 10.2398C15.6835 10.2322 15.9186 10.2625 16.1538 10.3233C16.6696 10.4978 16.8897 10.9757 16.6848 11.4765C16.5027 11.9089 16.2145 12.2807 15.9262 12.6524C14.9323 13.9194 13.9385 15.1788 12.9446 16.4306C12.8611 16.5292 12.7853 16.6279 12.6639 16.7948H12.6638Z" fill="#0E0E0E"/>
<path d="M21.4642 12.8055C21.6463 12.5704 21.836 12.3503 22.1471 12.2897C22.7465 12.1683 23.3078 12.5553 23.3155 13.1622C23.3383 14.6795 23.3307 16.1969 23.3155 17.7141C23.3155 18.1086 23.0576 18.4576 22.6858 18.5714C22.3066 18.7155 21.8741 18.6017 21.6237 18.2755C21.4947 18.1162 21.4416 18.0859 21.2595 18.23C20.5691 18.7913 19.7877 18.8901 18.9456 18.6169C17.5951 18.1769 17.0413 17.1223 16.8897 15.8403C16.7303 14.4519 17.1931 13.2684 18.4373 12.54C19.4692 11.9255 20.5161 11.9787 21.4644 12.8057L21.4642 12.8055ZM18.7786 15.5746C18.7938 15.9084 18.9 16.2271 19.0973 16.4927C19.507 17.039 20.2884 17.1528 20.8423 16.7431C20.9333 16.6748 21.0168 16.5913 21.0927 16.4927C21.5174 15.9161 21.5174 14.9678 21.0927 14.3912C20.8803 14.0953 20.5464 13.9208 20.1899 13.9132C19.3553 13.8601 18.7711 14.505 18.7788 15.5746H18.7786ZM26.7218 15.6202C26.6611 13.6703 27.9433 12.2137 29.7641 12.1606C31.6987 12.0999 33.1098 13.3973 33.1706 15.294C33.2313 17.2134 32.0554 18.5714 30.2421 18.7535C28.262 18.9508 26.6915 17.5168 26.7218 15.6202ZM28.6262 15.4381C28.6109 15.8173 28.7247 16.1892 28.9524 16.5002C29.3696 17.0465 30.1511 17.1526 30.6974 16.7278C30.7809 16.6671 30.8491 16.5913 30.9174 16.5154C31.3574 15.9388 31.3574 14.9678 30.925 14.3912C30.7126 14.1028 30.3787 13.9208 30.0222 13.9132C29.2027 13.8676 28.6262 14.4898 28.6262 15.4381ZM26.0543 14.1103C26.0543 15.2863 26.0619 16.4622 26.0543 17.6382C26.0619 18.1768 25.6371 18.6245 25.0985 18.6396C25.0074 18.6396 24.9088 18.632 24.8178 18.6093C24.4385 18.5107 24.1502 18.1085 24.1502 17.6306V11.5993C24.1502 11.2428 24.1426 10.8936 24.1502 10.5371C24.1577 9.95301 24.5294 9.5736 25.0909 9.5736C25.6675 9.56606 26.0545 9.94533 26.0545 10.5522C26.062 11.7357 26.0545 12.9269 26.0545 14.1103H26.0543Z" fill="#0E0E0E"/>
<path fill-rule="evenodd" clip-rule="evenodd" d="M5.73286 0.319517C3.05117 0.319517 0.877379 2.49331 0.877379 5.175V28.1627C0.877379 30.8444 3.05117 33.0182 5.73286 33.0182H30.6248C33.3065 33.0182 35.4803 30.8444 35.4803 28.1627V5.175C35.4803 2.49331 33.3065 0.319517 30.6248 0.319517H5.73286ZM0.725586 5.175C0.725586 2.40947 2.96733 0.167725 5.73286 0.167725H30.6248C33.3903 0.167725 35.6321 2.40947 35.6321 5.175V28.1627C35.6321 30.9283 33.3903 33.17 30.6248 33.17H5.73286C2.96733 33.17 0.725586 30.9283 0.725586 28.1627V5.175Z" fill="#0E0E0E"/>
</svg>
